<svg xmlns="http://www.w3.org/2000/svg" width="308.976" height="53.858" viewBox="0, 0, 308.976, 53.858"><path d="M16.232 9.2h28.533v36.667H16.232V9.2z" fill="#FFF"/><path d="M16.232 9.2h28.533v36.667H16.232V9.2zM20.615 17.767H40.15M20.615 22.63h13.323M20.615 27.45h11.26" stroke="#000" stroke-width="1.5" stroke-linecap="round" stroke-linejoin="round" fill="none"/><path d="M36.738 32.486s1.87-1.886 3.182.08c1.254 1.882-3.047 5.195-3.182 5.204-.135.008-4.417-3.322-3.162-5.204 1.31-1.966 3.162-.08 3.162-.08z" fill="#F70000"/><path d="M36.738 32.486s1.87-1.886 3.182.08c1.254 1.882-3.047 5.195-3.182 5.204-.135.008-4.417-3.322-3.162-5.204 1.31-1.966 3.162-.08 3.162-.08z" stroke="#000" stroke-width="1.5" stroke-linecap="round" stroke-linejoin="round" fill="none"/><path d="M25.944 31.69l.016 6.073M25.944 31.69s4.47-.263 4.47 1.65c0 1.915-4.47 2.245-4.47 2.245" stroke="#000" stroke-width="1.485" stroke-linecap="round" stroke-linejoin="round" fill="none"/><path d="M61.717 18.43l.05 18.4M61.717 18.43s13.55-.8 13.55 5-13.55 6.8-13.55 6.8" stroke="#000" stroke-width="4.5" stroke-linecap="round" stroke-linejoin="round" fill="none"/><path d="M92.517 20.98s5.613-5.66 9.546.24c3.764 5.645-9.14 15.585-9.546 15.61-.404.025-13.25-9.965-9.487-15.61 3.933-5.9 9.487-.24 9.487-.24z" fill="#F70000"/><path d="M92.517 20.98s5.613-5.66 9.546.24c3.764 5.645-9.14 15.585-9.546 15.61-.404.025-13.25-9.965-9.487-15.61 3.933-5.9 9.487-.24 9.487-.24zM110.317 18.482l.05 18.4M123.292 18.482h-12.975M123.292 36.882h-12.975M121.292 27.682h-10.975M136.788 18.482l.05 18.4M143.3 18.482h-12.975M150.75 18.5l.05 18.4M150.75 18.5s13.55-.8 13.55 5-13.55 6.3-13.55 6.3M150.75 29.8l13.55 7.03M179.3 28.366l-.063 8.534M179.3 28.366l7.4-9.903M179.3 28.295l-7.4-9.903M220.45 29.35l.05 6.43M219.267 18.392s-13.517-2.513-13.517 9.29c0 11.803 14.75 9.218 14.75 9.218M220.45 29.418l-3.7-.068M229.5 36.9s1.5-18.57 7.75-18.732C243.5 18.004 245 36.9 245 36.9M243.25 30.23H232M253.08 37.04s.365-19.06 4.74-18.973c4.373.086 5.563 18.972 5.563 18.972M273.686 37.334s-.364-19.06-4.738-18.972c-4.374.086-5.565 18.972-5.565 18.972M280.858 18.392l.05 18.4M293.833 18.392h-12.975M293.833 36.792h-12.975M291.833 27.592h-10.975" stroke="#000" stroke-width="4.5" stroke-linecap="round" stroke-linejoin="round" fill="none"/></svg>