<svg xmlns="http://www.w3.org/2000/svg" width="31.4" height="38.267" viewBox="0, 0, 628, 765.333"><path d="M41.834 16.5H612.5v733.333H41.834V16.5z" fill="#FFF"/><path d="M41.834 16.5H612.5v733.333H41.834V16.5zM129.5 187.833h390.667M129.5 285.11h257.667M129.5 381.5h196" stroke="#000" stroke-width="30" stroke-linecap="round" stroke-linejoin="round" fill="none"/><g stroke="#000" stroke-width="30" stroke-linecap="round" stroke-linejoin="round" fill="none"><path d="M235.167 465.695l.333 122.667M235.167 465.695s90.333-5.333 90.333 33.333c0 38.667-90.333 32-90.333 32"/></g><g><path d="M451.948 482.223s37.42-37.73 63.637 1.594c25.095 37.644-60.94 103.906-63.637 104.073-2.695.167-88.34-66.43-63.244-104.073 26.216-39.324 63.244-1.594 63.244-1.594z" fill="#F70000"/><path d="M451.948 482.223s37.42-37.73 63.637 1.594c25.095 37.644-60.94 103.906-63.637 104.073-2.695.167-88.34-66.43-63.244-104.073 26.216-39.324 63.244-1.594 63.244-1.594z" stroke="#000" stroke-width="30" stroke-linecap="round" stroke-linejoin="round" fill="none"/></g></svg>