<?xml version="1.0" encoding="UTF-8"?>
<!DOCTYPE svg PUBLIC "-//W3C//DTD SVG 1.1//EN" "http://www.w3.org/Graphics/SVG/1.1/DTD/svg11.dtd">
<svg version="1.1" xmlns="http://www.w3.org/2000/svg" xmlns:xlink="http://www.w3.org/1999/xlink" x="0" y="0" width="628" height="765.333" viewBox="0, 0, 628, 765.333">
  <g id="Layer_2" opacity="0.802" transform="translate(33.667, 2.333)">
    <g>
      <path d="M8.167,14.167 L578.833,14.167 L578.833,747.5 L8.167,747.5 L8.167,14.167 z" fill="#FFFFFF"/>
      <path d="M8.167,14.167 L578.833,14.167 L578.833,747.5 L8.167,747.5 L8.167,14.167 z" fill-opacity="0" stroke="#000000" stroke-width="30" stroke-linecap="round" stroke-linejoin="round"/>
    </g>
    <path d="M27.833,435.833" fill-opacity="0" stroke="#000000" stroke-width="30"/>
    <path d="M95.833,185.5 L486.5,185.5" fill-opacity="0" stroke="#000000" stroke-width="30" stroke-linecap="round" stroke-linejoin="round"/>
    <path d="M95.833,282.778 L353.5,282.778" fill-opacity="0" stroke="#000000" stroke-width="30" stroke-linecap="round" stroke-linejoin="round"/>
    <path d="M95.833,379.167 L291.833,379.167" fill-opacity="0" stroke="#000000" stroke-width="30" stroke-linecap="round" stroke-linejoin="round"/>
    <g>
      <path d="M201.5,463.362 L201.833,586.029" fill-opacity="0" stroke="#000000" stroke-width="30" stroke-linecap="round" stroke-linejoin="round"/>
      <path d="M201.5,463.362 C201.5,463.362 291.833,458.029 291.833,496.695 C291.833,535.362 201.5,528.695 201.5,528.695" fill-opacity="0" stroke="#000000" stroke-width="30" stroke-linecap="round" stroke-linejoin="round"/>
    </g>
    <g>
      <path d="M418.281,479.89 C418.281,479.89 455.702,442.16 481.918,481.484 C507.013,519.128 420.977,585.39 418.281,585.557 C415.586,585.724 329.941,519.128 355.037,481.484 C381.253,442.16 418.281,479.89 418.281,479.89 L418.281,479.89 z" fill="#F70000"/>
      <path d="M418.281,479.89 C418.281,479.89 455.702,442.16 481.918,481.484 C507.013,519.128 420.977,585.39 418.281,585.557 C415.586,585.724 329.941,519.128 355.037,481.484 C381.253,442.16 418.281,479.89 418.281,479.89 L418.281,479.89 z" fill-opacity="0" stroke="#000000" stroke-width="30" stroke-linecap="round" stroke-linejoin="round"/>
    </g>
  </g>
</svg>
