<svg xmlns="http://www.w3.org/2000/svg" width="112.268" height="38.667" viewBox="0, 0, 112.268, 38.667"><path d="M1.5 1.5h28.533v36.667H1.5V1.5z" fill="#FFF"/><path d="M1.5 1.5h28.533v36.667H1.5V1.5zM5.883 10.067h19.534M5.883 13.93h13.323M5.883 17.75h11.26" stroke="#000" stroke-width="1.5" stroke-linecap="round" stroke-linejoin="round" fill="none"/><path d="M22.006 24.786s1.87-1.886 3.182.08c1.254 1.882-3.047 5.195-3.182 5.204-.135.008-4.417-3.322-3.162-5.204 1.31-1.966 3.162-.08 3.162-.08z" fill="#F70000"/><path d="M22.006 24.786s1.87-1.886 3.182.08c1.254 1.882-3.047 5.195-3.182 5.204-.135.008-4.417-3.322-3.162-5.204 1.31-1.966 3.162-.08 3.162-.08z" stroke="#000" stroke-width="1.5" stroke-linecap="round" stroke-linejoin="round" fill="none"/><path d="M11.212 23.99l.016 6.073M11.212 23.99s4.47-.263 4.47 1.65c0 1.915-4.47 2.245-4.47 2.245" stroke="#000" stroke-width="1.485" stroke-linecap="round" stroke-linejoin="round" fill="none"/><path d="M46.985 10.73l.05 18.4M46.985 10.73s13.55-.8 13.55 5-13.55 6.8-13.55 6.8" stroke="#000" stroke-width="4.5" stroke-linecap="round" stroke-linejoin="round" fill="none"/><path d="M77.785 13.28s5.613-5.66 9.546.24c3.765 5.645-9.14 15.585-9.545 15.61-.404.025-13.25-9.965-9.487-15.61 3.933-5.9 9.487-.24 9.487-.24z" fill="#F70000"/><path d="M77.785 13.28s5.613-5.66 9.546.24c3.765 5.645-9.14 15.585-9.545 15.61-.404.025-13.25-9.965-9.487-15.61 3.933-5.9 9.487-.24 9.487-.24zM109.718 21.65l.05 6.43M108.535 10.692s-13.517-2.513-13.517 9.29c0 11.803 14.75 9.218 14.75 9.218M109.718 21.718l-3.7-.068" stroke="#000" stroke-width="4.5" stroke-linecap="round" stroke-linejoin="round" fill="none"/></svg>